<svg id="Capa_1" data-name="Capa 1" xmlns="http://www.w3.org/2000/svg" viewBox="0 0 512 512"><defs><style>.cls-1{fill:#fff;}</style></defs><path class="cls-1" d="M245.05,263.15a15,15,0,0,0,21.52,0l72.8-75c25.6-26.21,25.59-68.82,0-95a66,66,0,0,0-83.53-9.25c-19.09-12.66-38.85-10.79-36-10.79-58.94,0-89.2,72.4-47.51,115.07Zm-51.32-149a35.86,35.86,0,0,1,51.36-.37,15,15,0,0,0,21.44,0,35.86,35.86,0,0,1,51.36.37c13.56,13.87,15.36,37.41-.78,53.91-1.49,1.52,11.09-11.41-61.3,63.14-59.81-61.6-61.19-63-61.31-63.14-16.13-16.52-14.32-40.06-.77-53.91Z"/><path class="cls-1" d="M440.4,0H71.6a15,15,0,0,0-15,15V496.65a15,15,0,0,0,24.12,11.91L256,374.46,431.26,508.88A15,15,0,0,0,455.39,497V15a15,15,0,0,0-15-15Zm-15,466.58L265.13,343.67a15,15,0,0,0-18.24,0L86.6,466.29V30H425.4Z"/></svg>