<svg id="Capa_1" data-name="Capa 1" xmlns="http://www.w3.org/2000/svg" viewBox="0 0 512 512"><defs><style>.cls-1{fill:#fff;}</style></defs><path class="cls-1" d="M509.92,189.43h0l-.09-.23,0-.06L469.93,89.43A15,15,0,0,0,456,80H416V15A15,15,0,0,0,401,0H111A15,15,0,0,0,96,15V80H56a15,15,0,0,0-13.93,9.43L2.19,189.14l0,.06-.09.23h0A14.93,14.93,0,0,0,1,195v22a63,63,0,0,0,30,53.64V497a15,15,0,0,0,15,15H466a15,15,0,0,0,15-15V270.64A63,63,0,0,0,511,217V195a15,15,0,0,0-1.08-5.57ZM126,30H386v90H126ZM66.16,110H96v25a15,15,0,0,0,15,15H401a15,15,0,0,0,15-15V110h29.85l28,70H38.16ZM319,210h66v7a33,33,0,0,1-66,0Zm-96,0h66v7a33,33,0,0,1-66,0Zm-96,0h66v7a33,33,0,0,1-66,0Zm-96,7v-7H97v7a33,33,0,0,1-66,0Zm90,265V342h90V482Zm330,0H241V327a15,15,0,0,0-15-15H106a15,15,0,0,0-15,15V482H61V279.92c1,.05,2,.08,3,.08a62.89,62.89,0,0,0,48-22.26,62.88,62.88,0,0,0,96,0,62.88,62.88,0,0,0,96,0,62.88,62.88,0,0,0,96,0A62.9,62.9,0,0,0,448,280c1,0,2,0,3-.08Zm30-265a33,33,0,0,1-66,0v-7h66Z"/><path class="cls-1" d="M171,90H341a15,15,0,0,0,0-30H171a15,15,0,0,0,0,30Z"/><path class="cls-1" d="M406,312H286a15,15,0,0,0-15,15v90a15,15,0,0,0,15,15H406a15,15,0,0,0,15-15V327A15,15,0,0,0,406,312Zm-15,90H301V342h90Z"/><path class="cls-1" d="M176,382a15,15,0,0,0-15,15v20a15,15,0,0,0,30,0V397A15,15,0,0,0,176,382Z"/></svg>