<svg id="Capa_1" data-name="Capa 1" xmlns="http://www.w3.org/2000/svg" viewBox="0 0 512 512"><defs><style>.cls-1{fill:#fff;}</style></defs><path class="cls-1" d="M341.48,338.29c54.48-85.5,47.63-74.83,49.2-77.06A163.75,163.75,0,0,0,421,166C421,75,347.14,0,256,0,165.16,0,91,74.83,91,166a164.62,164.62,0,0,0,31.19,96.45l48.33,75.84C118.85,346.23,31,369.89,31,422c0,19,12.4,46.07,71.46,67.16C143.7,503.89,198.23,512,256,512c108,0,225-30.47,225-90C481,369.88,393.26,346.24,341.48,338.29ZM147.25,246c-.17-.26-.34-.51-.52-.76A134.58,134.58,0,0,1,121,166c0-75,60.41-136,135-136,74.44,0,135,61,135,136a133.87,133.87,0,0,1-24.65,77.67c-1.44,1.91,6.1-9.81-110.35,172.92ZM256,482c-118,0-195-34.68-195-60,0-17,39.57-45,127.25-55.9l55.1,86.46a15,15,0,0,0,25.3,0l55.1-86.46C411.43,377,451,405,451,422,451,447.1,374.69,482,256,482Z"/><path class="cls-1" d="M256,91a75,75,0,1,0,75,75A75.09,75.09,0,0,0,256,91Zm0,120a45,45,0,1,1,45-45A45.05,45.05,0,0,1,256,211Z"/></svg>